# xmcd CD database file
#
# Track frame offsets:
#	150
#	23270
#	46793
#	69913
#
# Disc length: 1241 seconds
#
# Revision: 3
# Processed by: cddbd v1.5.2PL0 Copyright (c) Steve Scherf et al.
# Submitted via: CDex 1.70beta2
#
DISCID=1f04d704
DTITLE=岩坂士京 - この空にkissしたい   KIDS-266
DYEAR=1996
DGENRE=J-Pop
TTITLE0=この空にkissしたい
TTITLE1=優しさの条件
TTITLE2=この空にkissしたい (オリジナル・カラオケ）
TTITLE3=優しさの条件 (オリジナル・カラオケ）
EXTD=YEAR: 1996
EXTT0=
EXTT1=
EXTT2=
EXTT3=
PLAYORDER=
